<?xml version="1.0" encoding="UTF-8"?>
<svg width="30px" height="30px" viewBox="0 0 30 30" version="1.1" xmlns="http://www.w3.org/2000/svg" xmlns:xlink="http://www.w3.org/1999/xlink">
    <title>Artboard Copy 3</title>
    <g id="Artboard-Copy-3" stroke="none" stroke-width="1" fill="none" fill-rule="evenodd">
        <g id="logout" transform="translate(6.950000, 5.500000)" fill="#2C2C2C" fill-rule="nonzero">
            <path d="M16.0108745,9.7508557 C16.1118215,9.50068508 16.0559865,9.21453098 15.8683973,9.0206601 L13.9687014,7.12096422 C13.7080475,6.86031029 13.285444,6.86031029 13.02479,7.12096422 C12.7641361,7.38161816 12.7641361,7.80422168 13.02479,8.06487561 L13.7727953,8.81288086 L9.45098718,8.81288086 C9.08213728,8.81288086 8.78312535,9.11189279 8.78312535,9.48074269 C8.78312535,9.8495926 9.08213728,10.1486045 9.45098718,10.1486045 L13.7787318,10.1486045 L13.0307266,10.8966098 C12.8568107,11.0641628 12.7854944,11.3117713 12.8436417,11.5461633 C12.9017889,11.7805554 13.0805659,11.9661214 13.3126291,12.0329604 C13.5446922,12.0997994 13.7947856,12.037757 13.9687014,11.8702039 L15.8565242,9.98238114 C15.9237281,9.91695628 15.97633,9.83805351 16.0108745,9.7508557 L16.0108745,9.7508557 Z" id="Path"></path>
            <path d="M11.3566196,12.1254755 C10.989409,12.1254755 10.691726,12.4231585 10.691726,12.7903691 L10.691726,15.5033723 C10.6885024,15.8692392 10.3926995,16.1650421 10.0268325,16.1682658 L7.35538517,16.1682658 L7.35538517,2.81696575 L10.0268325,2.81696575 C10.3926995,2.82018944 10.6885024,3.11599235 10.691726,3.48185931 L10.691726,6.11175079 C10.691726,6.48060069 10.990738,6.77961262 11.3595879,6.77961262 C11.7284378,6.77961262 12.0274497,6.48060069 12.0274497,6.11175079 L12.0274497,3.48779586 C12.0241896,2.3842387 11.1303896,1.4904388 10.0268325,1.48717864 L7.27821002,1.48717864 C7.13770833,0.953128367 6.78209651,0.501222111 6.29606073,0.239077811 C5.81002494,-0.0230664895 5.23706274,-0.0719883529 4.71362059,0.10396258 L1.37134316,1.21409736 C0.552463229,1.48544007 -0.000267818245,2.2511281 9.73534027e-08,3.11379323 L9.73534027e-08,15.8773749 C-0.000267818245,16.74004 0.552463229,17.5057281 1.37134316,17.7770708 L4.70768404,18.8931421 C4.91422352,18.9631648 5.13074616,18.9992519 5.3488314,19 C6.25304287,18.9950541 7.04153522,18.3842159 7.27227347,17.509926 L10.0149594,17.509926 C11.1185166,17.5066659 12.0123165,16.612866 12.0155766,15.5093088 L12.0155766,12.7963057 C12.0171581,12.6199628 11.9486193,12.450215 11.8250394,12.3244084 C11.7014595,12.1986019 11.5329626,12.127043 11.3566196,12.1254755 L11.3566196,12.1254755 Z M6.01372495,16.9875097 C6.0128851,17.201871 5.90965057,17.4029225 5.73593286,17.5285157 C5.56221516,17.6541089 5.33893636,17.6891178 5.13511561,17.6227205 L1.79877473,16.5066492 C1.52588763,16.4149329 1.34194603,16.1593258 1.34166041,15.8714384 L1.34166041,3.11379323 C1.34447693,2.82809339 1.52794356,2.57552893 1.79877473,2.48451897 L5.13511561,1.36844765 C5.33893636,1.30205038 5.56221516,1.33705926 5.73593286,1.46265247 C5.90965057,1.58824568 6.0128851,1.7892971 6.01372495,2.00365846 L6.01372495,16.9875097 Z" id="Shape"></path>
        </g>
    </g>
</svg>