<?xml version="1.0" encoding="UTF-8"?>
<svg width="30px" height="30px" viewBox="0 0 30 30" version="1.1" xmlns="http://www.w3.org/2000/svg" xmlns:xlink="http://www.w3.org/1999/xlink">
    <title>Artboard Copy 4</title>
    <g id="Artboard-Copy-4" stroke="none" stroke-width="1" fill="none" fill-rule="evenodd">
        <g id="account-(1)" transform="translate(7.000000, 5.500000)" fill="#2C2C2C" fill-rule="nonzero">
            <path d="M13.6926769,9.63241538 C13.5080941,9.44373995 13.2361114,9.36926529 12.9811575,9.43758618 C12.7262037,9.50590708 12.5279062,9.70640437 12.4624022,9.96209646 C12.3968982,10.2177885 12.4743689,10.488933 12.6650692,10.6714231 C13.9175403,11.9038754 14.6205924,13.5889982 14.6154192,15.3461538 C14.6154192,16.2399577 12.0534153,17.5384615 8.03849609,17.5384615 C4.02357686,17.5384615 1.46157301,16.2393 1.46157301,15.3446923 C1.45660298,13.5998476 2.14993449,11.925542 3.38700378,10.6950269 C3.57551921,10.51123 3.65059173,10.2402348 3.58352328,9.9856347 C3.51645484,9.73103464 3.31761529,9.5321951 3.06301524,9.46512665 C2.80841518,9.3980582 2.5374199,9.47313072 2.35362301,9.66164615 C0.841283185,11.1660349 -0.00623588515,13.2130064 1.29810692e-15,15.3461538 C1.29810692e-15,17.7194 4.14130378,19 8.03849609,19 C11.9356884,19 16.0769949,17.7194 16.0769949,15.3461538 C16.0835209,13.1983161 15.2239883,11.1385148 13.6926769,9.63241538 L13.6926769,9.63241538 Z" id="Path"></path>
            <path d="M8.03849609,10.2307692 C10.863645,10.2307692 13.1538807,7.94053353 13.1538807,5.11538462 C13.1538807,2.2902357 10.863645,6.49053461e-16 8.03849609,6.49053461e-16 C5.21334717,6.49053461e-16 2.92311147,2.2902357 2.92311147,5.11538462 C2.92637335,7.93918131 5.21469939,10.2275074 8.03849609,10.2307692 Z M8.03849609,1.46153846 C10.0564596,1.46153846 11.6923422,3.09742111 11.6923422,5.11538462 C11.6923422,7.13334812 10.0564596,8.76923077 8.03849609,8.76923077 C6.02053258,8.76923077 4.38464993,7.13334812 4.38464993,5.11538462 C4.38702576,3.09840603 6.0215175,1.46391429 8.03849609,1.46153846 Z" id="Shape"></path>
        </g>
    </g>
</svg>