<?xml version="1.0" encoding="UTF-8"?>
<svg width="30px" height="30px" viewBox="0 0 30 30" version="1.1" xmlns="http://www.w3.org/2000/svg" xmlns:xlink="http://www.w3.org/1999/xlink">
    <title>Artboard Copy 5</title>
    <g id="Artboard-Copy-5" stroke="none" stroke-width="1" fill="none" fill-rule="evenodd">
        <g id="settings" transform="translate(5.500000, 5.500000)" fill="#2C2C2C" fill-rule="nonzero">
            <path d="M9.96683494,11.2946073 C9.70038968,11.2946073 9.48441316,11.5105838 9.48441316,11.777029 C9.4841905,13.025796 8.47173563,14.0379167 7.22296831,14.0377311 C5.97420099,14.0375085 4.96204299,13.0250538 4.96226565,11.7762868 C4.9624883,10.5276682 5.97472052,9.51558466 7.2233394,9.51558466 C7.48978466,9.51558466 7.70576118,9.29960819 7.70576118,9.03316299 C7.70576118,8.76671779 7.48978466,8.55074132 7.2233394,8.55074132 C5.44201555,8.55196593 3.99827561,9.99570554 3.997051,11.777029 C3.997051,13.5587606 5.4414218,15.0031311 7.22315386,15.0031311 C9.00488591,15.0031311 10.4492567,13.5587606 10.4492567,11.777029 C10.4492567,11.5105838 10.2332802,11.2946073 9.96683494,11.2946073 Z" id="Path"></path>
            <path d="M13.7994904,12.8865988 C13.7534748,12.6241614 13.5034319,12.4487084 13.2409944,12.494724 L12.2312485,12.6717356 C12.0465552,12.704095 11.8973384,12.8405832 11.848651,13.0216769 C11.7409967,13.4212705 11.5816862,13.8051297 11.3747643,14.1635319 C11.2804323,14.3263677 11.2894128,14.5292075 11.3977721,14.6830629 L11.9870689,15.5228477 C12.0695259,15.6398164 12.0557212,15.799164 11.9544127,15.9002499 L11.3487878,16.5058746 C11.2478503,16.6071089 11.0887253,16.621062 10.9717566,16.5389019 L10.1319716,15.9496053 C9.97811618,15.841246 9.77527638,15.8322655 9.61244048,15.9265975 C9.25407532,16.1335564 8.87021602,16.2928669 8.47058524,16.400484 C8.28949153,16.4491715 8.15300327,16.5983882 8.12064391,16.7830815 L7.94140566,17.7917139 C7.91687637,17.9325439 7.79452679,18.0352997 7.6515815,18.0351513 L6.79472621,18.0351513 C6.65178093,18.0352997 6.52946845,17.9325439 6.50490205,17.7917139 L6.32789037,16.7823393 C6.295531,16.597646 6.15904274,16.4484293 5.97794903,16.3997418 C5.57824404,16.2920876 5.19427341,16.1327771 4.8357227,15.9258553 C4.6728868,15.8315233 4.470047,15.8405038 4.31619156,15.9488631 L3.47789095,16.5377886 C3.36092222,16.6202456 3.2015746,16.606441 3.10048868,16.5051324 L2.49486381,15.8995077 C2.39377789,15.7985331 2.37986188,15.6395195 2.46183647,15.5224766 L3.05113322,14.6826918 C3.15945547,14.5288364 3.16847304,14.3259966 3.07414103,14.1631608 C2.86710787,13.8047957 2.70779736,13.4209365 2.60025441,13.0213058 C2.55156692,12.8402121 2.40235015,12.7037239 2.21765683,12.6713645 L1.20828204,12.4943529 C1.06771175,12.4698607 0.965067244,12.3479565 0.964844587,12.205271 L0.964844587,11.3484159 C0.96469615,11.2054706 1.06745199,11.0831582 1.20828204,11.0585918 L2.21765683,10.8815802 C2.40235015,10.8492208 2.55156692,10.7127326 2.60025441,10.5316389 C2.70772314,10.1316 2.86703365,9.74736971 3.07414103,9.38867065 C3.16847304,9.22583478 3.15945547,9.02299503 3.05113322,8.86913962 L2.46220756,8.03195249 C2.37975055,7.91498379 2.39355523,7.7556362 2.49486381,7.65455031 L3.10085978,7.04855448 C3.20187147,6.94743147 3.36099644,6.9336639 3.47789095,7.01589824 L4.31767593,7.60519486 C4.47153137,7.71355419 4.67437117,7.72253465 4.83720708,7.62820266 C5.19572068,7.42124377 5.5796913,7.26193329 5.97943341,7.15431615 C6.16052712,7.10562867 6.29701537,6.95641194 6.32937474,6.77171866 L6.50638642,5.7623441 C6.55240204,5.49990671 6.37694895,5.24986385 6.1145115,5.20384825 C5.85207406,5.15783264 5.60203114,5.33328569 5.55601552,5.59572308 L5.43058586,6.3119337 C5.15545701,6.40281452 4.88763871,6.51447658 4.62939462,6.64591793 L4.03378927,6.22806655 C3.53340656,5.87597295 2.8521899,5.93534793 2.42027398,6.36871102 L1.81242254,6.97248029 C1.37946755,7.40461878 1.32027811,8.08561262 1.67214913,8.58599522 L2.09000061,9.18160043 C1.95852212,9.43991867 1.84686003,9.70788535 1.7560163,9.98316258 L1.03980551,10.1085922 C0.437965789,10.2142797 -0.000741152691,10.7373732 0,11.3484159 L0,12.205271 C-0.000778262059,12.8169074 0.438745086,13.3404092 1.04128988,13.4454658 L1.75750068,13.5712665 C1.84834441,13.8463953 1.96000649,14.1142506 2.09148498,14.3724575 L1.67214913,14.9680628 C1.32038944,15.4685196 1.37972732,16.1495134 1.81279363,16.5815777 L2.4187896,17.1872024 C2.85085397,17.6203057 3.5319593,17.6794952 4.0323049,17.3274758 L4.62605478,16.9096244 C4.88429886,17.0410658 5.15211717,17.1526907 5.42724602,17.2436086 L5.55267568,17.9598193 C5.65836316,18.5626237 6.18271852,19.0017759 6.79472621,19 L7.6515815,19 C8.26336653,19.0007368 8.78686838,18.561028 8.89177656,17.9583349 L9.01757732,17.2421243 C9.29270617,17.1512435 9.56056158,17.0395814 9.81876856,16.90814 L10.414745,17.3259914 C10.9151648,17.6779366 11.5962701,17.6185616 12.0282603,17.185347 L12.6342563,16.5793511 C13.0673226,16.1472869 13.1266605,15.466293 12.7749008,14.9658362 L12.3574204,14.3720865 C12.4888618,14.1138424 12.6004867,13.8460242 12.6914047,13.5708954 L13.4076155,13.4450947 C13.6700529,13.3990791 13.845506,13.1490362 13.7994904,12.8865988 Z" id="Path"></path>
            <path d="M18.0945286,4.3789072 L17.5898412,4.29058692 C17.5267924,4.10860263 17.4524252,3.93073747 17.367185,3.75806762 L17.6640599,3.33984515 C17.9699153,2.90492346 17.9183704,2.31299208 17.5419701,1.93748248 L17.0640015,1.45840065 C16.6883062,1.08122113 16.0954841,1.02949068 15.6601541,1.33593977 L15.2404471,1.63021699 C15.0677773,1.54493968 14.8899121,1.47057252 14.7079277,1.40756083 L14.6210918,0.905100113 C14.5297285,0.381190184 14.0745079,-0.000850665477 13.5426936,1.42250639e-06 L12.8676742,1.42250639e-06 C12.335897,-0.000665118683 11.8808248,0.381561278 11.7896471,0.905471207 L11.7009557,1.41015849 C11.5189713,1.47317018 11.3411061,1.54753733 11.1684363,1.63281464 L10.7487293,1.33593977 C10.3138075,1.03008443 9.721876,1.08162933 9.34636631,1.45802956 L8.86913985,1.9359981 C8.49196024,2.31169325 8.44022978,2.90451526 8.74667893,3.33984515 L9.04095622,3.759552 C8.95567889,3.93222185 8.88131172,4.110087 8.81830001,4.2920713 L8.31546809,4.3789072 C7.79170647,4.47027044 7.40970265,4.92526829 7.4103685,5.45693407 L7.4103685,6.13195331 C7.40933155,6.66387886 7.79144671,7.11932202 8.31546809,7.21072238 L8.81978439,7.29904265 C8.88279609,7.48102695 8.95716327,7.6588921 9.04244059,7.83156195 L8.74779222,8.2512688 C8.4418997,8.68604205 8.49311063,9.2778621 8.86913985,9.65363147 L9.34636631,10.1308578 C9.72195022,10.5074807 10.3141044,10.5590256 10.7491004,10.2529476 L11.1699206,9.9586704 C11.3426276,10.0439106 11.5204557,10.1182778 11.70244,10.1813266 L11.7911314,10.6860138 C11.8824947,11.2097753 12.3374927,11.5917791 12.8691586,11.591112 L13.544178,11.591112 C14.0759923,11.591112 14.5306192,11.2082538 14.6210918,10.6841584 L14.7094121,10.1798422 C14.8913964,10.1168305 15.0692616,10.0424633 15.2419315,9.95718603 L15.6601541,10.2533187 C16.095447,10.5599162 16.6883804,10.5081858 17.0640015,10.1308578 L17.541599,9.65326038 C17.9177767,9.27782499 17.9694329,8.68622759 17.6640599,8.2512688 L17.3690405,7.83007758 C17.4542807,7.65737062 17.5286478,7.47954257 17.5916967,7.29755828 L18.0963841,7.20886691 C18.6189953,7.11698413 18.9999986,6.66295113 18.9999986,6.13232441 L18.9999986,5.45730517 C19.0008507,4.92537962 18.6185871,4.470122 18.0945286,4.3789072 Z M18.0351536,6.13343769 C18.0351536,6.19641227 17.9899173,6.25025795 17.9279075,6.26109388 L17.1322827,6.40062507 C16.9475894,6.43298443 16.7983726,6.56947265 16.7496851,6.75056633 C16.6671539,7.05694119 16.545027,7.35121841 16.3863844,7.6259761 C16.2920524,7.78881197 16.3010329,7.99165172 16.4093922,8.14550713 L16.8736304,8.80753809 C16.9099234,8.85908299 16.9038003,8.92929389 16.8591577,8.97378802 L16.3819313,9.45101437 C16.3369176,9.49424677 16.2675231,9.49921943 16.2167946,9.46288937 L15.5536502,8.99902238 C15.3997948,8.89066305 15.196955,8.88168259 15.0341191,8.97601458 C14.7593613,9.1346942 14.465084,9.2568211 14.1587091,9.3393152 C13.9779865,9.38859643 13.8421291,9.53807293 13.8102521,9.72265488 L13.6707209,10.5182795 C13.659885,10.5802893 13.6060393,10.6255256 13.5430647,10.6255256 L12.8676742,10.6255256 C12.8046996,10.6255256 12.7508539,10.5802893 12.740018,10.5182795 L12.6001156,9.72265488 C12.5677563,9.5379616 12.431268,9.38874487 12.2501743,9.34005739 C11.943688,9.25752617 11.6492994,9.13539927 11.3743932,8.97675677 C11.2115573,8.88242477 11.0087175,8.89140524 10.8548621,8.99976457 L10.1946865,9.46288937 C10.1431415,9.49918232 10.0729306,9.49305928 10.0284365,9.44841672 L9.55121002,8.97119036 C9.50656745,8.92669624 9.50044441,8.85648533 9.53673737,8.80494043 L10.0009756,8.14290947 C10.1093349,7.98905407 10.1183154,7.78621431 10.0239834,7.62337845 C9.8652666,7.34865786 9.74313967,7.05434354 9.66068265,6.74796867 C9.61129009,6.56739453 9.46185066,6.4316856 9.27734289,6.39988288 L8.48171805,6.26035169 C8.4197083,6.24951576 8.37447196,6.19567008 8.37447196,6.1326955 L8.37484307,5.45730517 C8.37480596,5.39433059 8.42007939,5.34048491 8.48208915,5.32964897 L9.27734289,5.18974669 C9.46203621,5.15738733 9.61125298,5.02089911 9.65994047,4.83980544 C9.74243459,4.53343057 9.86456152,4.23915335 10.0232412,3.96439566 C10.1175732,3.80155979 10.1085927,3.59872004 10.0002334,3.44486464 L9.53710846,2.78320477 C9.5008155,2.73165987 9.50693854,2.66144896 9.55158111,2.61695484 L10.0291787,2.13935739 C10.0736728,2.09471483 10.1438837,2.08859179 10.1954286,2.12488474 L10.8570887,2.58912282 C11.0109441,2.69744504 11.2137839,2.70646261 11.3766198,2.61213062 C11.6513776,2.453451 11.9456548,2.3313241 12.2520298,2.24883 C12.4331235,2.20014252 12.5696117,2.05092579 12.6019711,1.86623251 L12.7415023,1.07060785 C12.7528578,1.0097114 12.8057387,0.965402821 12.8676742,0.964846158 L13.5426936,0.964846158 C13.6056682,0.964846158 13.6595139,1.01008249 13.6703498,1.07209223 L13.809881,1.86771688 C13.8422404,2.05241016 13.9787286,2.20162689 14.1598224,2.25031437 C14.4661973,2.33277137 14.7605117,2.45489827 15.0352323,2.613615 C15.1980682,2.70794699 15.400908,2.69896652 15.5547635,2.59060719 L16.2167946,2.12636911 C16.2683395,2.09007616 16.3385504,2.09619921 16.3830446,2.14084176 L16.8606421,2.61843921 C16.904023,2.66311888 16.909478,2.73229073 16.8736304,2.78320477 L16.4093922,3.44634901 C16.3010329,3.60020441 16.2920524,3.80304417 16.3863844,3.96588003 C16.545027,4.24063773 16.6671539,4.53491494 16.7496851,4.84128981 C16.7983726,5.02238348 16.9475894,5.1588717 17.1322827,5.19123106 L17.9279075,5.33076225 C17.9899173,5.34159819 18.0351536,5.39544387 18.0351536,5.45841845 L18.0351536,6.13343769 Z" id="Shape"></path>
            <path d="M13.2049983,3.49013805 C11.9320728,3.49013805 10.9001355,4.52207511 10.9001355,5.79500033 C10.9015828,7.06733181 11.9326666,8.09841535 13.2049983,8.09986261 C14.4779239,8.09986261 15.5098611,7.06792556 15.5098611,5.79500033 C15.5098611,4.52207511 14.4779239,3.49013805 13.2049983,3.49013805 Z M13.2049983,7.13501928 C12.4649262,7.13501928 11.864979,6.53507228 11.864979,5.79500033 C11.8647935,5.0545573 12.4645551,4.45394232 13.2049983,4.45312592 L13.2049983,4.45498138 C13.9450705,4.45498138 14.5450176,5.05492839 14.5450176,5.79500033 C14.5450176,6.53507228 13.9450705,7.13501928 13.2049983,7.13501928 Z" id="Shape"></path>
        </g>
    </g>
</svg>