<?xml version="1.0" encoding="UTF-8"?>
<svg width="30px" height="30px" viewBox="0 0 30 30" version="1.1" xmlns="http://www.w3.org/2000/svg" xmlns:xlink="http://www.w3.org/1999/xlink">
    <title>Artboard Copy 6</title>
    <g id="Artboard-Copy-6" stroke="none" stroke-width="1" fill="none" fill-rule="evenodd">
        <g id="close" transform="translate(6.000000, 6.000000)" fill="#FFFFFF" fill-rule="nonzero">
            <path d="M11.7389323,9.5 L18.5361328,2.70279948 C19.1546224,2.0843099 19.1546224,1.08235677 18.5361328,0.463867187 C17.9176432,-0.154622396 16.9156901,-0.154622396 16.2972005,0.463867187 L9.5,7.26106771 L2.70279948,0.463867188 C2.0843099,-0.154622396 1.08235677,-0.154622396 0.463867187,0.463867188 C-0.154622396,1.08235677 -0.154622396,2.0843099 0.463867187,2.70279948 L7.26106771,9.5 L0.463867188,16.2972005 C-0.154622396,16.9156901 -0.154622396,17.9176432 0.463867188,18.5361328 C0.773111979,18.8453776 1.17822266,19 1.58333333,19 C1.98844401,19 2.39355469,18.8453776 2.70279948,18.5361328 L9.5,11.7389323 L16.2972005,18.5361328 C16.6064453,18.8453776 17.011556,19 17.4166667,19 C17.8217773,19 18.226888,18.8453776 18.5361328,18.5361328 C19.1546224,17.9176432 19.1546224,16.9156901 18.5361328,16.2972005 L11.7389323,9.5 Z" id="Path"></path>
        </g>
    </g>
</svg>