<?xml version="1.0" encoding="UTF-8"?>
<svg width="30px" height="30px" viewBox="0 0 30 30" version="1.1" xmlns="http://www.w3.org/2000/svg" xmlns:xlink="http://www.w3.org/1999/xlink">
    <title>Artboard Copy</title>
    <g id="Artboard-Copy" stroke="none" stroke-width="1" fill="none" fill-rule="evenodd">
        <g id="home-(1)" transform="translate(5.500000, 5.500000)" fill="#2C2C2C" fill-rule="nonzero">
            <path d="M18.4897488,8.26491869 C18.4891689,8.26448379 18.488734,8.2639039 18.4882991,8.26346897 L10.7370202,0.512480059 C10.4066264,0.1819413 9.96735779,0 9.50010935,0 C9.03286095,0 8.59359232,0.1819413 8.26305356,0.512480059 L0.515833964,8.25955469 C0.513224429,8.26216422 0.51046993,8.26491869 0.508005396,8.26752822 C-0.170468899,8.9499168 -0.169309114,10.0570767 0.511339787,10.7377256 C0.822307163,11.0488379 1.2328711,11.2288946 1.67199473,11.247886 C1.6899714,11.2496257 1.70794807,11.2504955 1.7260697,11.2504955 L2.03486251,11.2504955 L2.03486251,16.9546087 C2.03486251,18.0835145 2.95341232,19.0019194 4.08231817,19.0019194 L7.11486629,19.0019194 C7.42235435,19.0019194 7.67156315,18.7525656 7.67156315,18.4452225 L7.67156315,13.9730911 C7.67156315,13.4580016 8.0906805,13.0390292 8.60577006,13.0390292 L10.3944487,13.0390292 C10.9095382,13.0390292 11.3285106,13.4580016 11.3285106,13.9730911 L11.3285106,18.4452225 C11.3285106,18.7525656 11.5777194,19.0019194 11.8852075,19.0019194 L14.9177556,19.0019194 C16.0468064,19.0019194 16.9652113,18.0835145 16.9652113,16.9546087 L16.9652113,11.2504955 L17.2516782,11.2504955 C17.7187816,11.2504955 18.1580503,11.0685542 18.488734,10.7378705 C19.1701077,10.0562068 19.1703977,8.94701734 18.4897488,8.26491869 L18.4897488,8.26491869 Z M17.7013849,9.95066639 C17.5812021,10.0708491 17.4214417,10.1371018 17.2516782,10.1371018 L16.4085144,10.1371018 C16.1010264,10.1371018 15.8518176,10.3863107 15.8518176,10.6937987 L15.8518176,16.9546087 C15.8518176,17.4695533 15.4328452,17.8885257 14.9177556,17.8885257 L12.4419043,17.8885257 L12.4419043,13.9730911 C12.4419043,12.8441853 11.5234995,11.9256355 10.3944487,11.9256355 L8.60577006,11.9256355 C7.47671925,11.9256355 6.55816943,12.8441853 6.55816943,13.9730911 L6.55816943,17.8885257 L4.08231817,17.8885257 C3.56737358,17.8885257 3.14825622,17.4695533 3.14825622,16.9546087 L3.14825622,10.6937987 C3.14825622,10.3863107 2.89904738,10.1371018 2.59155936,10.1371018 L1.76289289,10.1371018 C1.75419451,10.1365219 1.74564108,10.136087 1.73679773,10.135942 C1.57094846,10.1330426 1.41539229,10.0672248 1.29883388,9.95052139 C1.0509298,9.70261734 1.0509298,9.29915708 1.29883388,9.05110803 C1.29897885,9.05110803 1.29897885,9.05096307 1.29912381,9.05081811 L1.29955874,9.05038318 L9.05054765,1.29968419 C9.17058541,1.17950147 9.33020087,1.11339371 9.50010935,1.11339371 C9.66987291,1.11339371 9.82948833,1.17950147 9.94967109,1.29968419 L17.6989203,9.04878846 C17.7000801,9.04994825 17.7013849,9.05110803 17.7025446,9.05226782 C17.9491439,9.3006068 17.9487091,9.70319723 17.7013849,9.95066639 Z" id="Shape"></path>
        </g>
    </g>
</svg>