<?xml version="1.0" encoding="UTF-8"?>
<svg width="30px" height="30px" viewBox="0 0 30 30" version="1.1" xmlns="http://www.w3.org/2000/svg" xmlns:xlink="http://www.w3.org/1999/xlink">
    <title>Artboard Copy 2</title>
    <g id="Artboard-Copy-2" stroke="none" stroke-width="1" fill="none" fill-rule="evenodd">
        <g id="chat-(1)" transform="translate(5.500000, 5.500000)" fill="#2C2C2C" fill-rule="nonzero">
            <path d="M2.19109078,14.8192042 C1.55619153,14.8192042 0.935918486,14.6571907 0.373773992,14.3415347 C0.0845421135,14.1925951 -0.027482331,13.8199405 0.145304323,13.5396029 C0.719394328,12.622263 0.926700689,11.500913 0.663852402,10.4463436 C0.391410082,9.35306967 -0.00279180479,8.43229665 1.49048217e-05,7.27492273 C0.00981212095,3.21442611 3.38959243,-0.0773879979 7.44603425,0.00138491229 C11.364068,0.0802989083 14.5931186,3.37380604 14.5931186,7.2927936 C14.5931186,12.4110576 9.22906648,16.0045131 4.49351762,14.028042 C3.84079416,14.5403716 3.02036325,14.8192042 2.19109078,14.8192042 Z M1.41961765,13.5695602 C2.3116746,13.8466057 3.3149565,13.6252891 4.00285807,12.9602576 C4.17235266,12.7963629 4.42588909,12.7551188 4.63855682,12.8568417 C8.69283528,14.7952196 13.4643618,11.7569837 13.4643618,7.2927936 C13.4643618,3.96156952 10.7543296,1.19689903 7.42331897,1.12983624 C3.99053632,1.06164477 1.13701694,3.84178767 1.12872723,7.27765039 C1.12605905,8.37694398 1.55496876,9.25548532 1.78936416,10.2968397 C2.03631645,11.3942521 1.90623265,12.5547299 1.41961765,13.5695602 Z" id="Shape"></path>
            <path d="M16.8088229,19 C15.9795974,19 15.1591195,18.7211204 14.5064901,18.2088848 C11.9880564,19.2599271 8.99236663,18.78127 6.92743914,16.9980394 C6.6915388,16.7943115 6.66548442,16.4379758 6.8691695,16.2020333 C7.07290161,15.9661848 7.42924469,15.9400369 7.66514503,16.1438118 C9.49657069,17.7253838 12.1787143,18.0811552 14.3614039,17.0376845 C14.5740246,16.9359146 14.827514,16.9772057 14.9971026,17.1411004 C15.6849571,17.8060849 16.6882861,18.0275425 17.580343,17.750356 C17.0063,16.5530548 16.926773,15.1813715 17.3716258,13.9115051 C17.3756233,13.9000772 17.379997,13.8888374 17.3847,13.8776445 C17.7095803,13.1117837 17.8732902,12.2978127 17.871268,11.4584462 C17.8676937,9.97855009 17.3753881,8.60959448 16.4474946,7.49948431 C16.247619,7.26029683 16.279458,6.90443139 16.5186034,6.70455983 C16.7577017,6.50464124 17.1136686,6.53652663 17.3135442,6.77566708 C18.3969175,8.07182241 18.9958391,9.73386027 19,11.4557185 C19.0023762,12.4419554 18.8110129,13.3990815 18.4312491,14.300902 C18.0323443,15.4555953 18.2158066,16.6919302 18.8546093,17.7203047 C19.0275371,18.0006892 18.9154186,18.3733909 18.6260926,18.5224245 C18.0640422,18.8379394 17.443628,19 16.8088229,19 L16.8088229,19 Z" id="Path"></path>
            <g id="Group" transform="translate(3.113529, 6.428408)">
                <ellipse id="Oval" cx="4.1829984" cy="0.89250883" rx="1" ry="1"></ellipse>
                <ellipse id="Oval" cx="0.892997545" cy="0.89250883" rx="1" ry="1"></ellipse>
                <ellipse id="Oval" cx="7.47304629" cy="0.89250883" rx="1" ry="1"></ellipse>
            </g>
        </g>
    </g>
</svg>